<svg width="89" height="199" viewBox="0 0 89 199" fill="none" xmlns="http://www.w3.org/2000/svg">
<g clip-path="url(#clip0_6543_4463)">
<path d="M6.01449 185.032C5.55761 184.341 5.74745 183.41 6.4385 182.953C7.12956 182.496 8.06014 182.686 8.51701 183.377L6.01449 185.032ZM9.76109 188.678L8.44629 189.4L8.44628 189.4L9.76109 188.678ZM13.2992 194.022L14.0353 192.716L13.2992 194.022ZM17.9625 190.462L19.0548 191.49L17.9625 190.462ZM20.3068 185.067C20.7037 184.34 21.6149 184.072 22.3421 184.469C23.0692 184.866 23.337 185.777 22.9401 186.504L20.3068 185.067ZM78.116 6.0768C78.6322 5.42885 79.5759 5.32204 80.2238 5.83824C80.8718 6.35443 80.9786 7.29815 80.4624 7.9461L78.116 6.0768ZM71.8503 17.9408L73.1429 18.7019L71.8503 17.9408ZM46.8829 70.8825L45.4924 70.3198L46.8829 70.8825ZM24.8311 137.449L26.2828 137.826L24.8311 137.449ZM18.5003 164.411L17.0321 164.103L18.5003 164.411ZM15.3347 191.793C15.2001 192.61 14.4283 193.164 13.6109 193.029C12.7935 192.895 12.2399 192.123 12.3746 191.305L15.3347 191.793ZM8.51701 183.377C9.93363 185.52 10.2419 186.437 11.0759 187.956L8.44628 189.4C7.43048 187.55 7.35536 187.06 6.01449 185.032L8.51701 183.377ZM11.0759 187.956C11.3002 188.364 11.5443 188.87 11.7802 189.35C12.0252 189.849 12.2777 190.355 12.5479 190.835C13.1311 191.872 13.6409 192.493 14.0353 192.716L12.563 195.329C11.3725 194.659 10.5195 193.348 9.93317 192.306C9.61854 191.746 9.33444 191.176 9.08754 190.673C8.83149 190.152 8.6283 189.731 8.44629 189.4L11.0759 187.956ZM14.0353 192.716C13.5665 192.452 13.2915 192.764 13.7027 192.53C13.9917 192.365 14.3794 192.056 14.8241 191.634C15.7427 190.764 16.4616 189.868 16.8702 189.433L19.0548 191.49C18.8824 191.673 17.8604 192.89 16.8879 193.812C16.387 194.286 15.7916 194.793 15.1863 195.137C14.7032 195.412 13.6225 195.926 12.563 195.329L14.0353 192.716ZM16.8702 189.433C17.2924 188.985 18.0205 188.142 18.7249 187.262C19.4499 186.356 20.0573 185.524 20.3068 185.067L22.9401 186.504C22.5486 187.222 21.7835 188.241 21.0672 189.136C20.3304 190.057 19.5485 190.965 19.0548 191.49L16.8702 189.433ZM80.4624 7.9461C77.7642 11.3331 75.3554 14.9443 73.1429 18.7019L70.5578 17.1797C72.8262 13.3272 75.313 9.59522 78.116 6.0768L80.4624 7.9461ZM73.1429 18.7019C63.3223 35.3805 55.5587 53.4436 48.2733 71.4452L45.4924 70.3198C52.7862 52.2974 60.618 34.0607 70.5578 17.1797L73.1429 18.7019ZM48.2733 71.4452C39.5026 93.117 32.1654 115.203 26.2828 137.826L23.3794 137.072C29.2953 114.32 36.6738 92.1099 45.4924 70.3198L48.2733 71.4452ZM26.2828 137.826C23.746 147.583 22.0087 154.967 19.9685 164.718L17.0321 164.103C19.0825 154.304 20.8309 146.873 23.3794 137.072L26.2828 137.826ZM19.9685 164.718C18.0891 173.699 16.8383 182.663 15.3347 191.793L12.3746 191.305C13.8624 182.271 15.1351 173.169 17.0321 164.103L19.9685 164.718Z" fill="white"/>
</g>
<defs>
<clipPath id="clip0_6543_4463">
<rect width="203" height="21" fill="white" transform="matrix(-0.336442 0.941704 0.941704 0.336442 68.2979 0)"/>
</clipPath>
</defs>
</svg>
