<svg width="89" height="199" viewBox="0 0 89 199" fill="none" xmlns="http://www.w3.org/2000/svg">
<g clip-path="url(#clip0_6543_4462)">
<path d="M82.5226 185.416C82.9795 184.725 82.7897 183.794 82.0986 183.338C81.4076 182.881 80.477 183.071 80.0201 183.762L82.5226 185.416ZM78.776 189.062L80.0908 189.784L80.0908 189.784L78.776 189.062ZM75.2379 194.407L74.5018 193.1L75.2379 194.407ZM70.5746 190.846L69.4823 191.874L70.5746 190.846ZM68.2303 185.451C67.8334 184.724 66.9222 184.456 66.195 184.853C65.4679 185.25 65.2001 186.161 65.597 186.889L68.2303 185.451ZM10.4211 6.46108C9.90494 5.81313 8.96122 5.70632 8.31327 6.22251C7.66532 6.73871 7.55851 7.68243 8.0747 8.33038L10.4211 6.46108ZM16.6868 18.3251L15.3942 19.0862L16.6868 18.3251ZM41.6542 71.2668L43.0447 70.704L41.6542 71.2668ZM63.706 137.833L62.2543 138.211L63.706 137.833ZM70.0369 164.795L71.5051 164.488L70.0369 164.795ZM73.2024 192.177C73.337 192.994 74.1088 193.548 74.9262 193.413C75.7436 193.279 76.2972 192.507 76.1625 191.69L73.2024 192.177ZM80.0201 183.762C78.6035 185.904 78.2952 186.821 77.4612 188.34L80.0908 189.784C81.1066 187.934 81.1817 187.444 82.5226 185.416L80.0201 183.762ZM77.4612 188.34C77.2369 188.749 76.9928 189.254 76.7569 189.735C76.5119 190.233 76.2594 190.739 75.9892 191.219C75.406 192.256 74.8963 192.878 74.5018 193.1L75.9741 195.714C77.1646 195.043 78.0176 193.732 78.6039 192.69C78.9186 192.131 79.2027 191.56 79.4496 191.057C79.7056 190.536 79.9088 190.115 80.0908 189.784L77.4612 188.34ZM74.5018 193.1C74.9706 192.836 75.2457 193.148 74.8344 192.914C74.5454 192.75 74.1577 192.44 73.713 192.019C72.7945 191.148 72.0755 190.252 71.6669 189.818L69.4823 191.874C69.6547 192.057 70.6767 193.274 71.6492 194.196C72.1501 194.671 72.7455 195.177 73.3508 195.522C73.8339 195.796 74.9146 196.31 75.9741 195.714L74.5018 193.1ZM71.6669 189.818C71.2447 189.369 70.5166 188.526 69.8122 187.646C69.0872 186.74 68.4798 185.908 68.2303 185.451L65.597 186.889C65.9885 187.606 66.7536 188.625 67.4699 189.521C68.2067 190.441 68.9886 191.349 69.4823 191.874L71.6669 189.818ZM8.0747 8.33038C10.7729 11.7173 13.1817 15.3286 15.3942 19.0862L17.9793 17.564C15.7109 13.7115 13.2241 9.97949 10.4211 6.46108L8.0747 8.33038ZM15.3942 19.0862C25.2148 35.7648 32.9784 53.8279 40.2638 71.8295L43.0447 70.704C35.7509 52.6817 27.9191 34.445 17.9793 17.564L15.3942 19.0862ZM40.2638 71.8295C49.0345 93.5013 56.3717 115.587 62.2543 138.211L65.1578 137.456C59.2418 114.704 51.8633 92.4942 43.0447 70.704L40.2638 71.8295ZM62.2543 138.211C64.7911 147.967 66.5284 155.352 68.5687 165.102L71.5051 164.488C69.4546 154.689 67.7062 147.257 65.1578 137.456L62.2543 138.211ZM68.5687 165.102C70.448 174.084 71.6988 183.047 73.2024 192.177L76.1625 191.69C74.6747 182.655 73.402 173.553 71.5051 164.488L68.5687 165.102Z" fill="white"/>
</g>
<defs>
<clipPath id="clip0_6543_4462">
<rect width="203" height="21" fill="white" transform="translate(20.2393 0.384277) rotate(70.3397)"/>
</clipPath>
</defs>
</svg>
