<svg viewBox="0 0 164 191" fill="none" xmlns="http://www.w3.org/2000/svg">
<g filter="url(#filter0_d_6499_4287)">
<path d="M60.2633 167.009C51.4887 160.289 43.293 153.231 36.6487 144.56C34.6373 141.935 32.7179 139.227 30.9357 136.443C29.9989 134.979 29.0268 134.173 27.1849 133.952C16.313 132.643 8.74288 126.911 5.26665 116.446C1.56548 105.304 6.19863 93.4702 16.2523 87.4324C17.0853 86.9321 17.9079 86.4145 18.774 85.8812C17.5062 81.8555 16.3093 77.9425 15.042 74.0524C11.5958 63.4733 14.7391 55.133 23.5581 48.6688C24.5448 47.9457 25.7147 47.3961 26.3563 46.2398C21.5271 44.1275 21.3919 42.6362 25.6947 39.2873C27.411 37.9515 29.3359 37.0178 31.4323 36.451C32.8039 36.0802 33.3459 35.3125 33.5192 33.8022C34.2158 27.7321 37.4718 23.3493 43.3276 21.6066C50.3427 19.5189 54.556 14.6143 57.9555 8.63448C58.9507 6.88384 59.5582 5.0169 59.1331 2.97964C58.7236 1.01655 59.8798 0.246229 61.4618 0.172952C72.0984 -0.319729 82.661 -0.126906 92.0754 5.81488C94.2215 7.16938 96.2245 7.55978 98.5958 6.98419C102.713 5.98478 106.763 6.54402 110.773 7.66286C113.813 8.51112 116.481 10.0622 118.072 12.7912C121.188 18.1358 125.942 19.9297 131.807 19.9457C138.604 19.9642 145.427 20.4457 151.87 17.5319C152.762 17.1284 153.818 16.872 154.649 17.6737C155.577 18.57 155.187 19.6572 154.842 20.6852C152.472 27.7347 150.67 34.8914 150.095 42.3518C149.844 45.603 150.226 48.8002 150.551 51.9655C151.085 57.1591 150.615 61.9043 147.241 66.1343C145.981 67.7137 148.554 71.5368 151.135 71.9856C152.716 72.2605 154.324 72.3759 155.917 72.5835C157.201 72.7508 159.06 72.437 159.289 74.0425C159.576 76.0529 160.374 78.415 158.594 80.1432C157.638 81.0706 157.587 82.0603 157.303 83.1874C155.075 92.0394 157.469 100.953 156.826 109.82C155.692 125.451 154.579 141.168 147.227 155.378C139.508 170.297 127.435 179.968 110.429 182.272C101.253 183.516 92.2317 181.94 83.5503 178.741C75.409 175.741 67.1971 172.847 60.2633 167.009ZM133.739 75.3769C132.77 75.4856 131.767 75.4714 130.837 75.7242C126.715 76.8452 125.815 78.1573 126.181 82.4608C126.459 85.7295 127.583 88.7223 129.423 91.4246C133.202 96.9747 140.82 98.8568 146.825 95.8353C148.487 94.999 149.293 93.8346 148.905 91.9876C147.745 86.4652 146.076 81.1145 143.484 76.078C142.995 75.1286 142.322 74.5041 141.182 74.5715C138.794 74.7128 136.345 74.3778 134.087 75.4482C134.087 75.4482 134.102 75.441 133.739 75.3769ZM70.7614 136.003C72.5218 134.553 73.5838 132.549 74.897 130.749C77.6721 126.946 81.2638 124.596 86.0086 124.001C91.5178 123.31 96.7184 124.143 101.487 127.006C107.595 130.673 114.01 131.511 120.814 129.462C123.466 128.663 126.12 127.865 128.756 127.014C134.781 125.07 140.653 122.513 147.152 122.515C148.39 122.516 148.835 121.865 148.944 120.681C149.508 114.541 150.183 108.409 149.992 102.228C149.963 101.284 150.212 100.219 149.06 99.495C148.371 99.6685 147.596 99.8537 146.826 100.059C136.496 102.812 128.217 99.2974 123.15 89.9371C122.088 87.9748 121.195 85.9178 120.281 83.879C119.725 82.638 119.269 81.1721 117.648 81.2332C116.071 81.2926 115.555 82.7403 115.078 84.0076C113.684 87.7124 112.015 91.2925 109.481 94.3484C104.092 100.845 96.9625 101.782 89.2468 100.213C82.8514 98.9131 80.0101 94.278 78.7961 88.3257C78.5285 87.0139 78.3102 85.6894 78.1339 84.3622C77.5937 80.2971 77.3415 80.0962 73.3679 80.539C67.3322 81.2117 61.2967 81.8879 55.2561 82.5145C50.0951 83.0497 48.9227 83.9272 47.8326 89.0509C46.4519 95.5405 46.1698 102.155 45.9846 108.769C45.948 110.078 46.3765 111.323 47.8571 111.128C50.6429 110.761 51.3641 112.619 52.1684 114.57C52.8498 116.223 53.5308 117.881 54.314 119.486C56.9028 124.794 59.3854 130.189 63.5885 134.48C65.4524 136.383 67.5555 138.007 70.7614 136.003ZM126.724 55.6762C124.538 54.1083 122.274 53.6899 119.463 53.9182C113.607 54.3937 107.679 54.6629 101.822 53.6066C96.0398 52.5637 90.783 50.0479 85.5629 47.5179C83.6205 46.5765 82.2121 46.6731 80.4434 47.9258C75.021 51.7662 69.0657 54.6199 62.8544 56.9793C57.008 59.2001 58.1593 58.0222 57.9683 63.8818C57.9364 64.8587 57.8077 65.8402 57.6324 66.803C57.0845 69.8112 56.4929 72.8114 55.8961 75.9302C56.692 75.9302 57.1375 75.9868 57.5645 75.9218C65.4955 74.715 73.4129 73.411 81.3605 72.3272C83.6571 72.014 85.5723 71.211 87.4948 69.9878C93.1962 66.3605 99.3811 65.7039 105.736 67.8358C108.82 68.8703 111.997 69.9871 113.558 73.3988C114.133 74.6566 120.522 74.7173 121.279 73.4797C123.861 69.2571 128.078 68.0526 132.477 67.0072C133.897 66.6697 135.469 67.042 137.061 66.1199C134.178 62.0619 130.756 58.8386 126.724 55.6762ZM42.0507 126.269C41.7362 122.346 41.4738 118.423 41.6395 114.48C41.6722 113.702 41.4959 112.856 41.1957 112.132C38.4884 105.609 35.7155 99.1121 33.0039 92.5901C32.452 91.2625 31.6119 90.7339 30.1502 90.6741C20.1352 90.2646 11.4464 98.2593 11.1924 108.203C10.9227 118.766 18.6101 126.934 29.02 126.83C32.2129 126.797 34.1127 127.863 35.6475 130.669C38.042 135.046 40.824 139.221 44.8379 143.159C43.4681 137.357 42.3714 132.126 42.0507 126.269ZM88.1639 75.4698C83.8005 76.8775 82.812 78.1917 82.6772 82.8116C82.6485 83.7951 82.6348 84.7822 82.683 85.7642C83.0938 94.1351 89.3062 98.2027 97.0106 97.0119C104.181 95.9035 108.695 90.0199 109.296 81.8427C109.621 77.4219 106.478 74.8471 102.123 75.9658C105.538 78.9984 106.431 81.7287 105.03 84.8578C103.887 87.4126 100.936 89.1949 98.3326 88.9037C95.3316 88.5681 92.8702 86.2892 92.2256 83.2906C91.794 81.2825 92.5197 79.5826 93.6252 78.0082C94.7782 76.3662 96.7044 75.8123 99.0655 74.6344C95.0571 74.7534 91.7578 73.9856 88.1639 75.4698ZM104.875 138.979C101.176 138.374 97.4798 137.752 93.7774 137.17C91.4836 136.809 89.004 136.118 87.7467 138.993C86.8569 141.028 88.0066 143.06 90.8537 144.834C91.3816 145.163 91.9591 145.414 92.5211 145.686C96.2805 147.502 100.312 148.372 104.422 148.618C111.365 149.035 118.369 149.729 125.04 146.822C127.233 145.867 129.09 144.523 130.188 142.34C130.957 140.81 131.077 139.224 129.992 137.786C128.878 136.31 127.434 136.121 125.684 136.684C119.073 138.811 112.319 139.836 104.875 138.979Z" fill="black"/>
<path d="M125.917 117.594C126.597 125.709 121.545 129.704 114.158 127.184C112.65 126.67 111.506 125.861 111.906 124.103C112.308 122.334 113.646 122.03 115.249 122.41C115.682 122.512 116.13 122.551 116.571 122.622C120.129 123.196 121.057 122.38 121.033 118.704C121.005 114.609 119.562 110.835 118.313 107.032C117.395 104.237 116.247 101.517 115.232 98.7521C114.69 97.2753 114.663 95.8255 116.368 95.1348C118.076 94.4428 119.094 95.4993 119.689 96.9503C122.399 103.555 125.08 110.174 125.917 117.594Z" fill="black"/>
<path d="M24.9965 101.611C26.9889 101.819 27.86 103.022 28.3039 104.563C29.0444 107.134 29.7374 109.72 30.3645 112.321C30.8941 114.517 29.8977 116.03 27.8506 116.693C25.8765 117.331 24.4299 116.251 23.8365 114.503C22.8349 111.554 21.9117 108.54 21.3877 105.479C20.9999 103.213 22.3884 101.801 24.9965 101.611Z" fill="black"/>
<path d="M134.081 75.454C139.151 74.9581 142.63 77.4412 142.842 81.718C143.011 85.1235 141.099 87.7504 137.774 88.6818C134.923 89.4805 131.734 88.0601 130.3 85.3521C128.759 82.4432 129.473 79.0143 132.079 76.9165C132.634 76.4693 133.245 76.091 133.967 75.561C134.102 75.4411 134.087 75.4483 134.081 75.454Z" fill="black"/>
<path d="M98.4638 140.005C105.563 141.349 112.463 142.223 119.431 140.799C120.823 140.515 122.189 140.058 123.525 139.565C125.234 138.934 126.981 138.437 127.832 140.596C128.63 142.62 127.087 143.47 125.506 144.115C120.002 146.359 114.238 146.88 108.395 146.404C103.863 146.034 99.3477 145.401 94.9111 144.341C94.046 144.134 93.1664 143.91 92.3625 143.543C91.1414 142.985 90.7042 141.938 91.0517 140.652C91.3826 139.427 92.3463 138.909 93.5122 139.052C95.1021 139.248 96.6685 139.635 98.4638 140.005Z" fill="black"/>
</g>
<defs>
<filter id="filter0_d_6499_4287" x="0" y="0" width="163.717" height="190.698" filterUnits="userSpaceOnUse" color-interpolation-filters="sRGB">
<feFlood flood-opacity="0" result="BackgroundImageFix"/>
<feColorMatrix in="SourceAlpha" type="matrix" values="0 0 0 0 0 0 0 0 0 0 0 0 0 0 0 0 0 0 127 0" result="hardAlpha"/>
<feOffset dy="4"/>
<feGaussianBlur stdDeviation="2"/>
<feComposite in2="hardAlpha" operator="out"/>
<feColorMatrix type="matrix" values="0 0 0 0 0 0 0 0 0 0 0 0 0 0 0 0 0 0 0.25 0"/>
<feBlend mode="normal" in2="BackgroundImageFix" result="effect1_dropShadow_6499_4287"/>
<feBlend mode="normal" in="SourceGraphic" in2="effect1_dropShadow_6499_4287" result="shape"/>
</filter>
</defs>
</svg>
