<svg xmlns="http://www.w3.org/2000/svg" xmlns:xlink="http://www.w3.org/1999/xlink" version="1.1" width="1000" height="1000" viewBox="0 0 1000 1000" xml:space="preserve">
<defs>
</defs>
<rect x="0" y="0" width="100%" height="100%" fill="rgba(255,255,255,0)"/>
<g transform="matrix(7.3736 0 0 7.3736 500.0014 500.0014)" id="55578">
<filter id="SVGID_124" y="-34.81%" height="169.62%" x="-34.81%" width="169.62%">
	<feGaussianBlur in="SourceAlpha" stdDeviation="5"/>
	<feOffset dx="10" dy="10" result="oBlur"/>
	<feFlood flood-color="rgb(0,0,0)" flood-opacity="1"/>
	<feComposite in2="oBlur" operator="in"/>
	<feMerge>
		<feMergeNode/>
		<feMergeNode in="SourceGraphic"/>
	</feMerge>
</filter>
<path style="stroke: none; stroke-width: 1; stroke-dasharray: none; stroke-linecap: butt; stroke-dashoffset: 0; stroke-linejoin: miter; stroke-miterlimit: 4; is-custom-font: none; font-file-url: none; fill: rgb(255,255,255); fill-rule: nonzero; opacity: 1;filter: url(#SVGID_124);" vector-effect="non-scaling-stroke" transform=" translate(-67.5, -67.5)" d="M 67.5 135 C 104.779 135 135 104.779 135 67.5 C 135 30.2208 104.779 0 67.5 0 C 30.2208 0 0 30.2208 0 67.5 C 0 104.779 30.2208 135 67.5 135 Z" stroke-linecap="round"/>
</g>
<g transform="matrix(4.7596 0 0 4.7596 476.9969 499.9963)" id="832962">
<g style="" vector-effect="non-scaling-stroke">
		<g transform="matrix(1 0 0 1 -0.1415 -4.1513)">
<path style="stroke: none; stroke-width: 1; stroke-dasharray: none; stroke-linecap: butt; stroke-dashoffset: 0; stroke-linejoin: miter; stroke-miterlimit: 4; is-custom-font: none; font-file-url: none; fill: rgb(0,0,0); fill-rule: nonzero; opacity: 1;" transform=" translate(-81.8586, -91.3487)" d="M 60.2633 167.009 C 51.4887 160.289 43.293 153.231 36.6487 144.56 C 34.6373 141.935 32.7179 139.227 30.9357 136.443 C 29.9989 134.979 29.0268 134.173 27.1849 133.952 C 16.313 132.643 8.74288 126.911 5.26665 116.446 C 1.56548 105.304 6.19863 93.4702 16.2523 87.4324 C 17.0853 86.9321 17.9079 86.4145 18.774 85.8812 C 17.5062 81.8555 16.3093 77.9425 15.042 74.0524 C 11.5958 63.4733 14.7391 55.133 23.5581 48.6688 C 24.5448 47.9457 25.7147 47.3961 26.3563 46.2398 C 21.5271 44.1275 21.3919 42.6362 25.6947 39.2873 C 27.411 37.9515 29.3359 37.0178 31.4323 36.451 C 32.8039 36.0802 33.3459 35.3125 33.5192 33.8022 C 34.2158 27.7321 37.4718 23.3493 43.3276 21.6066 C 50.3427 19.5189 54.556 14.6143 57.9555 8.63448 C 58.9507 6.88384 59.5582 5.0169 59.1331 2.97964 C 58.7236 1.01655 59.8798 0.246229 61.4618 0.172952 C 72.0984 -0.319729 82.661 -0.126906 92.0754 5.81488 C 94.2215 7.16938 96.2245 7.55978 98.5958 6.98419 C 102.713 5.98478 106.763 6.54402 110.773 7.66286 C 113.813 8.51112 116.481 10.0622 118.072 12.7912 C 121.188 18.1358 125.942 19.9297 131.807 19.9457 C 138.604 19.9642 145.427 20.4457 151.87 17.5319 C 152.762 17.1284 153.818 16.872 154.649 17.6737 C 155.577 18.57 155.187 19.6572 154.842 20.6852 C 152.472 27.7347 150.67 34.8914 150.095 42.3518 C 149.844 45.603 150.226 48.8002 150.551 51.9655 C 151.085 57.1591 150.615 61.9043 147.241 66.1343 C 145.981 67.7137 148.554 71.5368 151.135 71.9856 C 152.716 72.2605 154.324 72.3759 155.917 72.5835 C 157.201 72.7508 159.06 72.437 159.289 74.0425 C 159.576 76.0529 160.374 78.415 158.594 80.1432 C 157.638 81.0706 157.587 82.0603 157.303 83.1874 C 155.075 92.0394 157.469 100.953 156.826 109.82 C 155.692 125.451 154.579 141.168 147.227 155.378 C 139.508 170.297 127.435 179.968 110.429 182.272 C 101.253 183.516 92.2317 181.94 83.5503 178.741 C 75.409 175.741 67.1971 172.847 60.2633 167.009 Z M 133.739 75.3769 C 132.77 75.4856 131.767 75.4714 130.837 75.7242 C 126.715 76.8452 125.815 78.1573 126.181 82.4608 C 126.459 85.7295 127.583 88.7223 129.423 91.4246 C 133.202 96.9747 140.82 98.8568 146.825 95.8353 C 148.487 94.999 149.293 93.8346 148.905 91.9876 C 147.745 86.4652 146.076 81.1145 143.484 76.078 C 142.995 75.1286 142.322 74.5041 141.182 74.5715 C 138.794 74.7128 136.345 74.3778 134.087 75.4482 C 134.087 75.4482 134.102 75.441 133.739 75.3769 Z M 70.7614 136.003 C 72.5218 134.553 73.5838 132.549 74.897 130.749 C 77.6721 126.946 81.2638 124.596 86.0086 124.001 C 91.5178 123.31 96.7184 124.143 101.487 127.006 C 107.595 130.673 114.01 131.511 120.814 129.462 C 123.466 128.663 126.12 127.865 128.756 127.014 C 134.781 125.07 140.653 122.513 147.152 122.515 C 148.39 122.516 148.835 121.865 148.944 120.681 C 149.508 114.541 150.183 108.409 149.992 102.228 C 149.963 101.284 150.212 100.219 149.06 99.495 C 148.371 99.6685 147.596 99.8537 146.826 100.059 C 136.496 102.812 128.217 99.2974 123.15 89.9371 C 122.088 87.9748 121.195 85.9178 120.281 83.879 C 119.725 82.638 119.269 81.1721 117.648 81.2332 C 116.071 81.2926 115.555 82.7403 115.078 84.0076 C 113.684 87.7124 112.015 91.2925 109.481 94.3484 C 104.092 100.845 96.9625 101.782 89.2468 100.213 C 82.8514 98.9131 80.0101 94.278 78.7961 88.3257 C 78.5285 87.0139 78.3102 85.6894 78.1339 84.3622 C 77.5937 80.2971 77.3415 80.0962 73.3679 80.539 C 67.3322 81.2117 61.2967 81.8879 55.2561 82.5145 C 50.0951 83.0497 48.9227 83.9272 47.8326 89.0509 C 46.4519 95.5405 46.1698 102.155 45.9846 108.769 C 45.948 110.078 46.3765 111.323 47.8571 111.128 C 50.6429 110.761 51.3641 112.619 52.1684 114.57 C 52.8498 116.223 53.5308 117.881 54.314 119.486 C 56.9028 124.794 59.3854 130.189 63.5885 134.48 C 65.4524 136.383 67.5555 138.007 70.7614 136.003 Z M 126.724 55.6762 C 124.538 54.1083 122.274 53.6899 119.463 53.9182 C 113.607 54.3937 107.679 54.6629 101.822 53.6066 C 96.0398 52.5637 90.783 50.0479 85.5629 47.5179 C 83.6205 46.5765 82.2121 46.6731 80.4434 47.9258 C 75.021 51.7662 69.0657 54.6199 62.8544 56.9793 C 57.008 59.2001 58.1593 58.0222 57.9683 63.8818 C 57.9364 64.8587 57.8077 65.8402 57.6324 66.803 C 57.0845 69.8112 56.4929 72.8114 55.8961 75.9302 C 56.692 75.9302 57.1375 75.9868 57.5645 75.9218 C 65.4955 74.715 73.4129 73.411 81.3605 72.3272 C 83.6571 72.014 85.5723 71.211 87.4948 69.9878 C 93.1962 66.3605 99.3811 65.7039 105.736 67.8358 C 108.82 68.8703 111.997 69.9871 113.558 73.3988 C 114.133 74.6566 120.522 74.7173 121.279 73.4797 C 123.861 69.2571 128.078 68.0526 132.477 67.0072 C 133.897 66.6697 135.469 67.042 137.061 66.1199 C 134.178 62.0619 130.756 58.8386 126.724 55.6762 Z M 42.0507 126.269 C 41.7362 122.346 41.4738 118.423 41.6395 114.48 C 41.6722 113.702 41.4959 112.856 41.1957 112.132 C 38.4884 105.609 35.7155 99.1121 33.0039 92.5901 C 32.452 91.2625 31.6119 90.7339 30.1502 90.6741 C 20.1352 90.2646 11.4464 98.2593 11.1924 108.203 C 10.9227 118.766 18.6101 126.934 29.02 126.83 C 32.2129 126.797 34.1127 127.863 35.6475 130.669 C 38.042 135.046 40.824 139.221 44.8379 143.159 C 43.4681 137.357 42.3714 132.126 42.0507 126.269 Z M 88.1639 75.4698 C 83.8005 76.8775 82.812 78.1917 82.6772 82.8116 C 82.6485 83.7951 82.6348 84.7822 82.683 85.7642 C 83.0938 94.1351 89.3062 98.2027 97.0106 97.0119 C 104.181 95.9035 108.695 90.0199 109.296 81.8427 C 109.621 77.4219 106.478 74.8471 102.123 75.9658 C 105.538 78.9984 106.431 81.7287 105.03 84.8578 C 103.887 87.4126 100.936 89.1949 98.3326 88.9037 C 95.3316 88.5681 92.8702 86.2892 92.2256 83.2906 C 91.794 81.2825 92.5197 79.5826 93.6252 78.0082 C 94.7782 76.3662 96.7044 75.8123 99.0655 74.6344 C 95.0571 74.7534 91.7578 73.9856 88.1639 75.4698 Z M 104.875 138.979 C 101.176 138.374 97.4798 137.752 93.7774 137.17 C 91.4836 136.809 89.004 136.118 87.7467 138.993 C 86.8569 141.028 88.0066 143.06 90.8537 144.834 C 91.3816 145.163 91.9591 145.414 92.5211 145.686 C 96.2805 147.502 100.312 148.372 104.422 148.618 C 111.365 149.035 118.369 149.729 125.04 146.822 C 127.233 145.867 129.09 144.523 130.188 142.34 C 130.957 140.81 131.077 139.224 129.992 137.786 C 128.878 136.31 127.434 136.121 125.684 136.684 C 119.073 138.811 112.319 139.836 104.875 138.979 Z" stroke-linecap="round"/>
</g>
		<g transform="matrix(1 0 0 1 36.9019 15.9254)">
<path style="stroke: none; stroke-width: 1; stroke-dasharray: none; stroke-linecap: butt; stroke-dashoffset: 0; stroke-linejoin: miter; stroke-miterlimit: 4; is-custom-font: none; font-file-url: none; fill: rgb(0,0,0); fill-rule: nonzero; opacity: 1;" transform=" translate(-118.9019, -111.4254)" d="M 125.917 117.594 C 126.597 125.709 121.545 129.704 114.158 127.184 C 112.65 126.67 111.506 125.861 111.906 124.103 C 112.308 122.334 113.646 122.03 115.249 122.41 C 115.682 122.512 116.13 122.551 116.571 122.622 C 120.129 123.196 121.057 122.38 121.033 118.704 C 121.005 114.609 119.562 110.835 118.313 107.032 C 117.395 104.237 116.247 101.517 115.232 98.7521 C 114.69 97.2753 114.663 95.8255 116.368 95.1348 C 118.076 94.4428 119.094 95.4993 119.689 96.9503 C 122.399 103.555 125.08 110.174 125.917 117.594 Z" stroke-linecap="round"/>
</g>
		<g transform="matrix(1 0 0 1 -56.0858 13.7445)">
<path style="stroke: none; stroke-width: 1; stroke-dasharray: none; stroke-linecap: butt; stroke-dashoffset: 0; stroke-linejoin: miter; stroke-miterlimit: 4; is-custom-font: none; font-file-url: none; fill: rgb(0,0,0); fill-rule: nonzero; opacity: 1;" transform=" translate(-25.9142, -109.2445)" d="M 24.9965 101.611 C 26.9889 101.819 27.86 103.022 28.3039 104.563 C 29.0444 107.134 29.7374 109.72 30.3645 112.321 C 30.8941 114.517 29.8977 116.03 27.8506 116.693 C 25.8765 117.331 24.4299 116.251 23.8365 114.503 C 22.8349 111.554 21.9117 108.54 21.3877 105.479 C 20.9999 103.213 22.3884 101.801 24.9965 101.611 Z" stroke-linecap="round"/>
</g>
		<g transform="matrix(1 0 0 1 54.1737 -13.3527)">
<path style="stroke: none; stroke-width: 1; stroke-dasharray: none; stroke-linecap: butt; stroke-dashoffset: 0; stroke-linejoin: miter; stroke-miterlimit: 4; is-custom-font: none; font-file-url: none; fill: rgb(0,0,0); fill-rule: nonzero; opacity: 1;" transform=" translate(-136.1737, -82.1473)" d="M 134.081 75.454 C 139.151 74.9581 142.63 77.4412 142.842 81.718 C 143.011 85.1235 141.099 87.7504 137.774 88.6818 C 134.923 89.4805 131.734 88.0601 130.3 85.3521 C 128.759 82.4432 129.473 79.0143 132.079 76.9165 C 132.634 76.4693 133.245 76.091 133.967 75.561 C 134.102 75.4411 134.087 75.4483 134.081 75.454 Z" stroke-linecap="round"/>
</g>
		<g transform="matrix(1 0 0 1 27.4927 47.295)">
<path style="stroke: none; stroke-width: 1; stroke-dasharray: none; stroke-linecap: butt; stroke-dashoffset: 0; stroke-linejoin: miter; stroke-miterlimit: 4; is-custom-font: none; font-file-url: none; fill: rgb(0,0,0); fill-rule: nonzero; opacity: 1;" transform=" translate(-109.4927, -142.795)" d="M 98.4638 140.005 C 105.563 141.349 112.463 142.223 119.431 140.799 C 120.823 140.515 122.189 140.058 123.525 139.565 C 125.234 138.934 126.981 138.437 127.832 140.596 C 128.63 142.62 127.087 143.47 125.506 144.115 C 120.002 146.359 114.238 146.88 108.395 146.404 C 103.863 146.034 99.3477 145.401 94.9111 144.341 C 94.046 144.134 93.1664 143.91 92.3625 143.543 C 91.1414 142.985 90.7042 141.938 91.0517 140.652 C 91.3826 139.427 92.3463 138.909 93.5122 139.052 C 95.1021 139.248 96.6685 139.635 98.4638 140.005 Z" stroke-linecap="round"/>
</g>
</g>
</g>
</svg>